<?xml version="1.0" standalone="no"?>
<!DOCTYPE svg PUBLIC "-//W3C//DTD SVG 20010904//EN"
 "http://www.w3.org/TR/2001/REC-SVG-20010904/DTD/svg10.dtd">
<svg version="1.0" xmlns="http://www.w3.org/2000/svg"
 width="300.000000pt" height="300.000000pt" viewBox="0 0 300.000000 300.000000"
 preserveAspectRatio="xMidYMid meet">
<metadata>
Created by potrace 1.10, written by Peter Selinger 2001-2011
</metadata>
<g transform="translate(0.000000,300.000000) scale(0.100000,-0.100000)"
fill="#ffffff" stroke="none">
<path d="M2044 2757 c-28 -7 -58 -17 -65 -23 -8 -6 -26 -14 -41 -18 -14 -3
-48 -23 -75 -44 -26 -20 -60 -43 -75 -49 -48 -21 -117 -93 -128 -132 -15 -54
-12 -59 16 -26 69 81 94 105 108 105 8 0 27 -16 41 -35 19 -24 38 -37 63 -41
20 -4 45 -18 55 -31 10 -12 26 -23 35 -23 9 0 32 -9 50 -20 18 -11 45 -20 61
-20 16 0 31 -6 35 -15 3 -8 10 -15 15 -15 5 0 27 -17 49 -37 65 -62 102 -92
166 -135 34 -23 78 -61 100 -85 l38 -43 -16 -34 c-9 -19 -16 -38 -16 -43 0 -6
-9 -18 -20 -28 -11 -10 -17 -22 -14 -27 3 -5 -4 -17 -17 -27 -12 -9 -20 -23
-17 -31 3 -10 8 -9 21 4 9 10 21 14 27 11 17 -10 11 -34 -10 -45 -11 -6 -20
-18 -19 -28 0 -10 3 -12 6 -5 3 10 9 8 21 -4 12 -12 13 -18 4 -21 -17 -5 -15
-22 2 -22 8 0 16 -8 18 -17 6 -29 31 25 30 64 -1 18 3 33 8 33 5 0 11 9 15 19
9 29 59 88 70 84 14 -4 38 77 39 131 1 28 -4 45 -16 54 -10 7 -18 19 -18 25 0
8 3 8 9 -1 6 -10 10 -8 14 9 4 14 1 26 -6 31 -9 6 -9 13 2 30 13 22 13 22 -4
8 -17 -14 -18 -13 -12 3 4 10 3 16 -2 12 -5 -3 -12 -1 -16 5 -3 5 -1 10 4 10
6 0 10 11 9 25 -2 17 -7 24 -16 20 -7 -2 -10 0 -7 5 3 6 0 10 -7 10 -10 1 -9
4 2 13 14 11 23 56 11 55 -20 -2 -21 5 -7 26 10 15 12 27 6 31 -6 3 -10 16
-10 28 0 16 -3 18 -9 8 -12 -19 -58 23 -66 60 -4 16 -13 29 -21 29 -8 0 -14 8
-14 17 0 13 3 14 12 5 7 -7 17 -12 22 -12 6 0 -1 8 -14 17 -14 10 -28 17 -32
16 -3 -1 -23 13 -44 32 -21 19 -45 35 -54 35 -8 0 -26 7 -38 16 -12 8 -22 12
-22 8 0 -4 -7 1 -15 12 -11 14 -15 16 -15 4 0 -10 -9 -6 -25 13 -19 21 -25 24
-25 11 0 -12 -3 -14 -13 -6 -21 18 -88 22 -143 9z m431 -826 c-3 -10 -1 -31 5
-47 9 -27 9 -28 -5 -10 -16 20 -20 58 -8 69 11 12 15 8 8 -12z"/>
<path d="M1481 2306 c-10 -12 -8 -13 9 -9 25 7 37 23 17 23 -8 0 -20 -6 -26
-14z"/>
<path d="M1543 2245 c-18 -8 -33 -20 -33 -27 0 -13 58 -58 76 -58 5 0 31 -21
58 -46 50 -47 65 -47 66 2 0 19 -49 72 -60 65 -3 -2 -13 11 -22 29 -15 30 -35
50 -48 49 -3 0 -20 -6 -37 -14z"/>
<path d="M1390 2176 c0 -2 42 -31 93 -63 51 -33 99 -69 107 -79 14 -18 14 -19
-7 -1 -12 10 -27 19 -35 21 -7 1 -25 14 -40 29 -27 27 -48 35 -48 17 0 -14 95
-110 109 -110 6 0 17 -11 23 -25 8 -17 17 -24 29 -20 11 4 23 -2 33 -17 14
-20 18 -21 26 -8 8 13 10 13 10 0 0 -8 -17 -32 -37 -53 -22 -22 -29 -35 -18
-29 11 6 29 20 39 31 24 27 40 26 78 0 25 -18 29 -26 24 -50 -3 -16 -9 -42
-12 -59 -4 -19 -2 -30 5 -30 6 0 11 5 11 10 0 6 6 9 13 8 8 -2 11 8 10 30 -1
26 3 32 15 30 10 -2 18 -13 20 -26 2 -12 7 -22 12 -22 5 0 7 7 4 15 -10 26 16
17 108 -35 95 -54 123 -63 86 -27 -13 12 -16 15 -5 7 16 -12 19 -12 29 0 8 13
9 12 5 -2 -4 -11 8 -28 39 -53 43 -36 58 -75 34 -90 -21 -13 -9 -25 18 -19 25
6 47 24 54 45 2 5 37 18 78 29 109 30 128 39 144 71 17 33 11 36 -23 12 -14
-9 -21 -11 -17 -5 4 8 0 12 -12 12 -10 0 -24 -10 -31 -23 -19 -36 -68 -60
-130 -63 -64 -4 -84 10 -95 69 -8 41 -61 101 -83 93 -8 -3 -12 -2 -9 3 7 10
-64 41 -93 41 -11 0 -26 6 -33 13 -7 6 -32 13 -56 14 -74 4 -147 55 -183 128
-42 84 -117 142 -170 131 -16 -3 -31 -1 -34 4 -7 11 -85 53 -85 46z m235 -176
c3 -5 4 -10 1 -10 -3 0 -8 5 -11 10 -3 6 -4 10 -1 10 3 0 8 -4 11 -10z m249
-179 c3 -5 -3 -11 -15 -14 -16 -4 -18 -3 -8 9 13 16 16 17 23 5z m106 -63 c0
-14 -16 -9 -36 13 -19 21 -19 21 9 8 15 -7 27 -16 27 -21z m27 -15 c-4 -3 -10
-3 -14 0 -3 4 0 7 7 7 7 0 10 -3 7 -7z m220 -120 c-4 -3 -10 -3 -14 0 -3 4 0
7 7 7 7 0 10 -3 7 -7z"/>
<path d="M1620 1930 c0 -5 -10 -10 -22 -11 l-23 0 23 -11 c12 -6 22 -17 22
-25 0 -18 29 -17 37 3 3 9 -3 23 -16 35 -11 11 -21 15 -21 9z m27 -37 c-4 -3
-10 -3 -14 0 -3 4 0 7 7 7 7 0 10 -3 7 -7z"/>
<path d="M2010 1909 c0 -6 -4 -7 -10 -4 -13 8 -54 -15 -44 -25 5 -4 40 -18 78
-31 39 -13 84 -35 100 -50 17 -14 37 -24 43 -22 7 3 16 -4 19 -14 3 -10 8 -25
12 -33 3 -8 4 -18 4 -22 -1 -5 5 -8 13 -8 15 0 19 14 17 59 -2 33 -46 96 -68
98 -37 2 -94 21 -129 42 -19 11 -35 16 -35 10z"/>
<path d="M2754 1786 c-3 -8 -4 -27 -2 -43 2 -22 9 -29 31 -31 24 -3 27 0 27
27 0 16 -3 36 -6 45 -8 20 -43 21 -50 2z"/>
<path d="M2382 1758 c3 -34 19 -31 29 4 6 22 4 26 -12 25 -14 -1 -18 -8 -17
-29z"/>
<path d="M1350 1759 c0 -5 5 -7 10 -4 6 3 10 8 10 11 0 2 -4 4 -10 4 -5 0 -10
-5 -10 -11z"/>
<path d="M1310 1737 c0 -7 -10 -19 -21 -27 -12 -8 -27 -21 -35 -27 -18 -18
-34 -16 -34 4 0 14 -2 14 -21 -3 -11 -10 -18 -26 -16 -36 3 -9 -1 -22 -9 -29
-8 -6 -14 -19 -14 -28 0 -9 -5 -23 -11 -31 -8 -12 -9 -10 -4 9 5 17 4 21 -5
16 -6 -4 -10 -18 -7 -31 2 -13 0 -24 -4 -24 -5 0 -6 -7 -3 -15 4 -8 1 -15 -5
-15 -14 0 -15 -134 0 -161 7 -15 7 -24 -2 -35 -8 -10 -8 -14 0 -14 6 0 11 -7
11 -15 0 -8 6 -34 14 -57 38 -119 55 -188 60 -237 6 -71 16 -77 17 -10 0 30 4
62 7 72 7 16 10 15 42 -8 18 -14 39 -25 46 -25 7 0 15 -8 17 -17 4 -17 5 -17
6 -1 1 15 12 17 74 16 121 -1 158 4 213 29 28 13 70 25 91 27 22 2 45 6 52 10
10 6 32 12 78 20 7 1 16 5 19 9 4 4 18 7 30 7 12 0 29 7 37 15 8 8 17 11 21 8
3 -4 6 -1 6 5 0 7 8 12 18 12 10 0 35 20 57 45 21 25 40 43 43 41 10 -11 -76
-120 -154 -195 -94 -91 -311 -239 -406 -278 -77 -31 -110 -25 -128 22 -14 37
-30 38 -30 2 0 -12 -11 -38 -23 -57 -13 -19 -32 -57 -42 -85 -14 -37 -41 -72
-102 -133 l-83 -82 -58 0 c-31 0 -129 -7 -217 -15 -88 -8 -163 -15 -167 -15
-12 0 -9 40 7 100 17 62 45 303 45 387 0 48 4 58 30 83 17 16 53 62 81 102 27
40 59 87 70 103 61 88 111 175 120 210 6 22 19 59 29 81 10 23 22 59 26 79 l7
37 -89 -7 c-49 -4 -124 -18 -166 -31 -72 -23 -80 -29 -140 -97 -74 -83 -167
-236 -204 -334 -20 -52 -28 -98 -34 -193 -8 -125 -22 -186 -45 -205 -23 -19
-47 -78 -52 -129 l-5 -51 93 -92 c127 -124 159 -149 169 -134 5 9 9 7 13 -8
11 -42 244 -170 409 -225 306 -101 652 -97 960 10 216 75 388 184 554 349
l111 110 -3 50 c-1 28 -3 50 -4 50 -1 0 -4 14 -6 30 -3 17 -9 31 -14 33 -5 2
-7 9 -4 17 3 7 1 16 -5 20 -6 3 -11 15 -11 26 0 11 -7 19 -16 19 -10 0 -14 6
-11 14 3 7 -1 25 -8 39 -7 14 -9 27 -4 29 5 2 3 14 -4 28 -14 27 -17 35 -17
48 0 5 -16 17 -35 28 -29 15 -37 16 -44 5 -14 -21 -44 -8 -54 24 -6 17 -21 43
-33 58 -13 16 -24 36 -24 45 0 62 -101 189 -140 177 -13 -4 -22 1 -30 15 -16
30 -32 14 -24 -25 5 -27 1 -40 -16 -62 l-22 -28 4 43 c3 40 -5 57 -15 30 -2
-7 -8 -10 -12 -6 -5 5 19 36 52 70 33 35 74 91 92 125 18 34 57 91 87 127 30
36 53 66 51 66 -31 0 -70 -29 -93 -68 -33 -55 -203 -234 -216 -226 -5 3 -12
-4 -15 -16 -4 -16 -8 -18 -14 -8 -7 11 -9 11 -9 0 0 -7 -7 -20 -15 -28 -8 -9
-15 -12 -15 -8 0 3 -6 1 -13 -5 -8 -6 -16 -8 -20 -5 -3 3 -16 0 -29 -6 -19
-10 -21 -10 -10 1 19 20 14 34 -6 16 -21 -19 -37 -23 -26 -6 4 8 1 8 -12 1
-11 -5 -32 -12 -48 -13 -23 -3 -30 0 -32 16 -2 11 5 29 16 40 18 19 24 37 21
62 -1 11 -74 65 -93 69 -5 1 -10 3 -13 4 -3 1 -9 3 -14 4 -5 0 -21 11 -35 23
-14 13 -37 25 -51 29 -18 4 -24 11 -20 21 3 11 1 13 -10 9 -8 -3 -15 -1 -15 5
0 6 -10 9 -22 7 -34 -5 -30 -40 7 -57 17 -8 34 -20 38 -28 4 -7 15 -13 22 -13
8 0 15 -4 15 -10 0 -5 9 -10 20 -10 11 0 23 -7 27 -16 3 -9 13 -14 23 -11 9 2
21 -3 27 -12 9 -14 4 -16 -39 -16 -26 0 -48 4 -48 9 0 4 -7 2 -16 -5 -14 -11
-18 -11 -28 2 -6 9 -17 14 -24 11 -7 -2 -18 0 -25 6 -7 5 -24 12 -40 16 -28 7
-117 87 -117 105 0 6 -7 11 -15 11 -11 0 -15 11 -15 39 0 24 -7 47 -20 62
l-20 24 6 -40 c17 -103 88 -185 200 -229 52 -21 81 -26 154 -26 61 0 90 -4 90
-11 0 -19 -44 -54 -62 -51 -9 2 -26 -6 -38 -18 -17 -17 -24 -19 -36 -9 -11 9
-14 8 -14 -3 0 -20 -91 -52 -102 -36 -7 12 -12 4 -9 -14 0 -4 -7 -4 -16 -1 -9
4 -14 2 -10 -3 3 -6 1 -16 -5 -24 -8 -12 -9 -11 -4 4 5 13 2 17 -8 13 -13 -5
-14 4 -11 53 3 58 3 60 -21 60 -13 0 -24 5 -24 11 0 5 -4 8 -9 4 -5 -3 -13 -1
-16 5 -5 8 -12 7 -23 -2 -14 -11 -15 -10 -9 6 6 14 4 16 -5 9 -17 -13 -68 -15
-68 -3 0 5 4 11 9 14 4 3 7 29 5 58 -2 29 -6 88 -9 131 -4 53 -2 76 5 72 5 -3
10 3 10 14 0 26 11 32 46 22 19 -5 37 -21 51 -47 13 -21 23 -34 23 -29 0 6 8
0 18 -12 9 -12 29 -25 45 -28 22 -6 27 -4 27 12 0 21 -29 53 -48 53 -7 0 -12
6 -12 14 0 8 -10 18 -22 22 -13 4 -36 21 -53 39 -45 48 -95 70 -95 42z m17
-424 c-4 -3 -10 -3 -14 0 -3 4 0 7 7 7 7 0 10 -3 7 -7z m80 -55 c-3 -8 -6 -5
-6 6 -1 11 2 17 5 13 3 -3 4 -12 1 -19z m320 5 c-4 -3 -7 0 -7 7 0 7 3 10 7 7
3 -4 3 -10 0 -14z m-127 -153 c0 -5 -4 -10 -10 -10 -5 0 -10 5 -10 10 0 6 5
10 10 10 6 0 10 -4 10 -10z m820 -162 c0 -18 -2 -20 -9 -8 -6 8 -7 18 -5 22 9
14 14 9 14 -14z m-1813 -540 c-3 -8 -6 -5 -6 6 -1 11 2 17 5 13 3 -3 4 -12 1
-19z"/>
<path d="M316 1655 c-7 -18 3 -73 15 -80 14 -9 27 28 22 63 -5 33 -27 43 -37
17z"/>
<path d="M1746 1635 c4 -8 11 -15 16 -15 6 0 5 6 -2 15 -7 8 -14 15 -16 15 -2
0 -1 -7 2 -15z"/>
<path d="M2540 1046 c0 -8 4 -17 9 -21 6 -3 9 4 8 15 -1 23 -17 28 -17 6z"/>
</g>
</svg>
